<svg xmlns="http://www.w3.org/2000/svg" version="1.1" xmlns:xlink="http://www.w3.org/1999/xlink" width="15.999999" height="15.999999"><svg width="15.999999" height="15.999999" viewBox="0 0 4.2333328 4.2333331" version="1.1" id="SvgjsSvg1012" inkscape:version="1.4 (86a8ad7, 2024-10-11)" sodipodi:docname="favicon.svg" xmlns:inkscape="http://www.inkscape.org/namespaces/inkscape" xmlns:sodipodi="http://sodipodi.sourceforge.net/DTD/sodipodi-0.dtd" xmlns="http://www.w3.org/2000/svg" xmlns:svg="http://www.w3.org/2000/svg">
  <sodipodi:namedview id="SvgjsSodipodi:namedview1011" pagecolor="#ffffff" bordercolor="#000000" borderopacity="0.25" inkscape:showpageshadow="2" inkscape:pageopacity="0.0" inkscape:pagecheckerboard="0" inkscape:deskcolor="#d1d1d1" inkscape:document-units="mm" inkscape:zoom="16.634006" inkscape:cx="12.324151" inkscape:cy="6.552841" inkscape:window-width="2542" inkscape:window-height="1328" inkscape:window-x="1281" inkscape:window-y="16" inkscape:window-maximized="0" inkscape:current-layer="svg1"></sodipodi:namedview>
  <defs id="SvgjsDefs1010"></defs>
  <circle style="fill:#032e15;fill-opacity:1;stroke-width:0.0132292;stroke-dasharray:0.0132292, 0.635" id="SvgjsCircle1009" cx="2.1166666" cy="2.1166666" r="2.1166666"></circle>
  <path style="font-size:12.3547px;line-height:1.25;font-family:'Saira Stencil One';-inkscape-font-specification:'Saira Stencil One';fill:#ffffff;stroke-width:0.0253366;stroke-dasharray:0.0253366, 1.21616" d="m 0.28613507,1.4427305 h 0.35752604 v 1.229889 H 0.28613507 Z m 0.43260643,0 h 0.454058 V 1.716238 h -0.454058 z m 0,0.4719342 H 1.088781 V 2.1881723 H 0.7187415 Z m 0,0.4844473 h 0.454058 V 2.6726195 H 0.7187415 Z M 1.3873137,1.4963592 v -0.053629 h 0.328924 L 2.2310753,2.5367591 2.1720835,2.6726195 H 1.9396916 Z m 1.0100112,0.659635 h -0.00715 L 2.2704034,2.44559 2.1166672,2.1166667 2.3973253,1.4427305 h 0.3396496 v 1.229889 H 2.3973247 Z M 1.3873137,1.6733339 1.7162377,2.374086 V 2.6726195 H 1.3873137 Z M 2.9693666,1.4427305 h 0.3575262 v 1.229889 H 2.9693666 Z M 3.4019731,2.399112 h 0.073293 q 0.050054,0 0.075081,-0.00178 0.026814,-0.00357 0.039328,-0.014296 0.012515,-0.010721 0.016089,-0.03039 0.00536,-0.019664 0.00536,-0.057204 0,-0.039327 -0.00536,-0.058992 Q 3.6021941,2.216786 3.5896751,2.20606 3.5682231,2.188185 3.4752666,2.188185 H 3.4019731 V 1.9146775 h 0.062567 q 0.050054,0 0.07508,-0.00179 0.026814,-0.00357 0.039328,-0.014296 0.012515,-0.010722 0.016089,-0.028603 0.00536,-0.019664 0.00536,-0.053629 0,-0.035753 -0.00536,-0.053629 -0.00357,-0.019664 -0.016089,-0.03039 -0.012515,-0.010722 -0.039328,-0.012516 -0.025027,-0.00357 -0.07508,-0.00357 H 3.4019731 V 1.4427401 h 0.20379 q 0.3593134,0 0.3593134,0.3092596 0,0.1304965 -0.051841,0.1966397 -0.050055,0.066142 -0.1608873,0.092956 v 0.00715 q 0.1161963,0.026814 0.1662496,0.084018 0.057204,0.06793 0.057204,0.2109413 0,0.1644615 -0.087594,0.2466916 -0.087594,0.082232 -0.2806579,0.082232 H 3.4019731 Z" id="SvgjsPath1008" aria-label="EMB"></path>
</svg><style>@media (prefers-color-scheme: light) { :root { filter: none; } }
@media (prefers-color-scheme: dark) { :root { filter: none; } }
</style></svg>